<svg version="1.1" id="Layer_1" xmlns="http://www.w3.org/2000/svg" xmlns:xlink="http://www.w3.org/1999/xlink" x="0px" y="0px" enable-background="new 0 0 1024 1024" xml:space="preserve" viewBox="229.07 256.78 568.28 511.67">
<path fill="#000000" opacity="1.000000" stroke="none" d=" M422.944519,752.225098   C376.349304,734.237305 337.990173,705.886902 308.493683,665.941711   C286.514038,636.176025 271.453094,603.226807 264.362152,566.798828   C261.881317,554.054077 259.939301,541.210754 259.777710,528.202454   C259.724030,523.879761 258.109039,522.665100 254.046646,523.154358   C247.056427,523.996216 240.307098,525.631104 233.744415,528.167969   C229.490585,529.812317 228.680939,529.102112 229.264603,524.570679   C234.779160,481.756653 250.213989,443.196014 278.377899,410.102600   C280.139191,408.033020 281.200195,405.593018 282.324677,403.182312   C308.945740,346.110504 351.371643,305.224854 408.619385,279.315460   C431.412659,268.999603 455.151978,262.057831 479.880981,258.945526   C531.469604,252.452759 580.719788,260.689026 627.313843,283.956543   C680.405151,310.468689 719.129028,351.039795 744.702026,404.391357   C745.864990,406.817505 747.225830,409.047607 748.967407,411.104492   C776.108459,443.159882 791.390442,480.385681 797.095154,521.765564   C797.321777,523.409607 797.313721,525.090698 797.336914,526.755615   C797.345764,527.390869 797.134949,528.029236 796.938782,529.157837   C790.861023,527.499329 785.165833,525.245178 779.177063,523.998047   C766.221130,521.300171 766.182312,521.160461 765.420105,534.286621   C763.392212,569.206726 754.578125,602.345154 738.054199,633.134460   C701.429382,701.377930 644.744324,743.931213 569.767883,762.149048   C538.850220,769.661438 507.499756,769.942505 475.992645,765.586792   C457.903046,763.085999 440.461121,758.395508 422.944519,752.225098  M406.050323,720.390991   C443.501465,739.541016 483.238495,748.062744 525.239563,745.895630   C568.535522,743.661743 608.471619,730.696106 643.921143,705.867432   C704.279053,663.593079 737.824829,605.495117 743.540100,531.726440   C743.956604,526.350769 742.181946,524.918701 737.123718,526.756775   C722.085632,532.221558 710.522156,541.742798 703.622620,556.384949   C702.188782,559.427917 700.582336,561.010986 696.924255,560.982605   C675.539856,560.816833 655.046997,577.806335 649.813721,598.341248   C648.985535,601.591248 648.827637,605.151672 646.748474,608.479370   C644.088318,606.548767 641.733215,604.724182 639.265137,603.067932   C627.599243,595.239685 614.867493,591.995239 600.846985,594.070862   C583.643127,596.617737 569.650696,605.148499 557.596313,617.214905   C537.855164,636.975830 525.520386,661.170105 516.065491,687.070007   C515.383606,688.937988 515.319092,691.318298 513.136047,692.276306   C511.851593,691.531250 511.792328,690.475769 511.481415,689.551453   C506.259979,674.028992 499.133667,659.365234 490.966614,645.226440   C489.004700,641.829956 489.023804,639.440430 491.030975,636.178467   C510.824005,604.012634 530.470947,571.756897 550.171509,539.534180   C551.199768,537.852417 552.538574,536.306641 551.867737,533.064636   C541.912598,533.064636 531.778931,533.064636 520.602722,533.064636   C529.172424,510.674133 537.256958,489.551239 545.269226,468.617096   C543.115173,466.831757 541.210693,467.325043 539.440918,467.319000   C528.276428,467.280884 517.111755,467.310638 505.947174,467.314545   C495.791595,467.318085 495.644043,467.281036 493.349030,476.918579   C487.615387,500.995972 481.960083,525.092590 476.414642,549.213989   C473.931793,560.013733 474.085205,560.017151 485.263092,559.928406   C492.710754,559.869263 500.159210,559.917175 508.575806,559.917175   C500.573395,585.445801 492.831940,610.141846 485.095428,634.822205   C482.638824,634.271790 482.106750,632.498779 481.141571,631.221802   C472.211914,619.406982 462.003510,608.975708 448.802765,601.927612   C430.722076,592.274109 412.230591,590.336975 393.218781,599.354675   C388.433899,601.624207 384.443787,605.142029 380.080811,607.824646   C378.451721,606.455505 378.396759,604.869019 377.981598,603.477417   C377.508881,601.892822 377.382141,600.202454 376.881226,598.629211   C369.496735,575.436096 353.403809,563.026917 329.401581,560.750122   C326.001801,560.427551 324.249207,559.417725 322.755768,556.201050   C315.755127,541.122253 303.542908,531.827698 288.145691,526.434143   C282.634155,524.503418 281.972351,524.948486 282.312622,530.852783   C283.552948,552.372864 287.407257,573.529175 294.862274,593.683777   C315.595764,649.736267 352.365601,692.075134 406.050323,720.390991  M651.537720,324.980072   C535.205688,239.173096 390.581085,286.748627 336.478119,362.874359   C360.029449,350.575226 383.494263,341.440125 409.639740,337.650787   C408.739349,341.120605 406.887268,341.790009 405.464722,342.794495   C397.938782,348.108643 391.151611,354.187592 385.402130,361.426086   C375.755157,373.571350 369.702087,387.351959 370.647827,402.843567   C371.590851,418.290009 377.943237,432.095978 388.498993,443.716339   C403.951019,460.726868 423.876160,469.279602 445.805725,474.021667   C451.771027,475.311584 452.425354,474.750946 452.771088,468.654846   C453.911469,448.548370 455.490326,428.464539 455.845947,408.317474   C455.897369,405.404602 456.184601,402.511597 457.191498,399.912354   C459.135712,399.980225 459.785400,401.051910 460.546631,401.880585   C469.786774,411.939026 479.065125,421.963715 488.180450,432.134430   C490.330566,434.533478 492.497070,435.900818 495.852844,435.859314   C507.513153,435.715057 519.177429,435.742859 530.838074,435.881836   C533.783447,435.916931 535.818115,434.928528 537.704834,432.709625   C542.018616,427.636292 546.511902,422.712677 551.014038,417.803162   C556.704224,411.598083 562.475586,405.467468 568.173767,399.345703   C570.265381,400.945923 570.083740,402.704346 570.134399,404.324036   C570.816162,426.113281 572.148865,447.860626 573.857849,469.594299   C574.219177,474.189362 575.834290,475.541229 580.028687,474.555511   C599.897339,469.886169 618.432007,462.609497 633.720337,448.401031   C655.042114,428.585327 661.371216,399.802429 649.695801,375.175476   C643.045776,361.148590 632.171509,351.081085 619.870728,342.222076   C618.479858,341.220367 616.465454,340.726074 615.915894,337.648834   C641.644775,341.218170 665.222534,350.052368 688.299316,361.059479   C678.368042,346.701721 665.618103,335.665100 651.537720,324.980072  z"/>
<path fill="#000000" opacity="1.000000" stroke="none" d=" M676.507446,581.335022   C678.489136,580.115051 680.050537,580.057922 680.445862,582.431580   C680.669495,583.774048 679.568115,584.637024 678.287659,584.651062   C676.181946,584.674133 675.030273,583.831238 676.507446,581.335022  z"/>
</svg>